<svg xmlns="http://www.w3.org/2000/svg" viewBox="0 0 512 512" width="512" height="512">
  <defs>
    <linearGradient id="gta6-sunset" x1="0%" y1="0%" x2="100%" y2="100%">
      <stop offset="0%" stop-color="#18042c" />    <stop offset="40%" stop-color="#3c0044" />   <stop offset="70%" stop-color="#ff007f" />   <stop offset="95%" stop-color="#ff6a00" />   <stop offset="100%" stop-color="#ffb300" />  </linearGradient>
    
    <filter id="neon-glow" x="-20%" y="-20%" width="140%" height="140%">
      <feGaussianBlur stdDeviation="6" result="blur" />
      <feComposite in="SourceGraphic" in2="blur" operator="over" />
    </filter>
  </defs>

  <rect width="512" height="512" rx="110" fill="url(#gta6-sunset)"/>
  
  <g opacity="0.15">
    <circle cx="256" cy="230" r="130" fill="#fff" />
    <rect x="100" y="190" width="312" height="6" fill="#18042c" />
    <rect x="100" y="220" width="312" height="10" fill="#18042c" />
    <rect x="100" y="250" width="312" height="14" fill="#18042c" />
    <rect x="100" y="280" width="312" height="18" fill="#18042c" />
  </g>

  <g filter="url(#neon-glow)">
    <path d="M266 420 Q240 290 225 175" stroke="#ffffff" stroke-width="16" stroke-linecap="round" fill="none"/>
    <path d="M266 420 Q240 290 225 175" stroke="#00f0ff" stroke-width="6" stroke-linecap="round" fill="none" opacity="0.4"/>
    
    <g stroke="#ffffff" stroke-width="13" stroke-linecap="round" stroke-linejoin="round" fill="none">
      <path d="M225 175 Q130 150 90 220"/>
      <path d="M225 175 Q140 90 110 130"/>
      <path d="M225 175 Q225 65 180 90"/>
      <path d="M225 175 Q310 65 355 90"/>
      <path d="M225 175 Q310 90 340 130"/>
      <path d="M225 175 Q320 150 360 220"/>
    </g>
    
    <g stroke="#00f0ff" stroke-width="5" stroke-linecap="round" stroke-linejoin="round" fill="none" opacity="0.6">
      <path d="M225 175 Q130 150 90 220"/>
      <path d="M225 175 Q140 90 110 130"/>
      <path d="M225 175 Q310 90 340 130"/>
      <path d="M225 175 Q320 150 360 220"/>
    </g>
  </g>
</svg>
